{"title":"Drake - Started From The Bottom [Explicit] 720p [Sbyky]","uid":8361447,"size":110792349,"categoryP":"video","categoryS":"music_videos","magnet":"?xt=urn:btih:86bf543d6d9e9c97d07be899e9b7edd0e08d3b6d&amp;dn=Drake+-+Started+From+The+Bottom+%5BExplicit%5D+720p+%5BSbyky%5D&amp;tr=udp%3A%2F%2Ftracker.openbittorrent.com%3A80&amp;tr=udp%3A%2F%2Fopen.demonii.com%3A1337&amp;tr=udp%3A%2F%2Ftracker.coppersurfer.tk%3A6969&amp;tr=udp%3A%2F%2Fexodus.desync.com%3A6969","seeders":1,"leechers":0,"uploader":"Sbyky","files":-1,"time":1365636557,"description":"[IMG]http://www.shotpix.com/images/96301124407645297220.jpg[/IMG]\n\nGeneral\nComplete name                            : Drake - Started From The Bottom [Explicit] 720p [Sbyky].mp4\nFormat                                   : MPEG-4\nFormat profile                           : Base Media / Version 2\nCodec ID                                 : mp42\nFile size                                : 106 MiB\nDuration                                 : 5mn 20s\nOverall bit rate mode                    : Variable\nOverall bit rate                         : 2 765 Kbps\nEncoded date                             : UTC 2013-04-08 06:48:51\nTagged date                              : UTC 2013-04-08 06:48:51\n\nVideo\nID                                       : 1\nFormat                                   : AVC\nFormat/Info                              : Advanced Video Codec\nFormat profile                           : &lt;a class=&quot;__cf_email__&quot; href=&quot;/cdn-cgi/l/email-protection&quot; data-cfemail=&quot;e5ad8c828da5a9d6cbd4&quot;&gt;[email&amp;#160;protected]&lt;/a&gt;&lt;script cf-hash='f9e31' type=&quot;text/javascript&quot;&gt;\n/* &lt;![CDATA[ */!function(){try{var t=&quot;currentScript&quot;in document?document.currentScript:function(){for(var t=document.getElementsByTagName(&quot;script&quot;),e=t.length;e--;)if(t[e].getAttribute(&quot;cf-hash&quot;))return t[e]}();if(t&amp;&amp;t.previousSibling){var e,r,n,i,c=t.previousSibling,a=c.getAttribute(&quot;data-cfemail&quot;);if(a){for(e=&quot;&quot;,r=parseInt(a.substr(0,2),16),n=2;a.length-n;n+=2)i=parseInt(a.substr(n,2),16)^r,e+=String.fromCharCode(i);e=document.createTextNode(e),c.parentNode.replaceChild(e,c)}}}catch(u){}}();/* ]]&gt; */&lt;/script&gt;\nFormat settings, CABAC                   : Yes\nFormat settings, ReFrames                : 1 frame\nFormat settings, GOP                     : M=1, N=60\nCodec ID                                 : avc1\nCodec ID/Info                            : Advanced Video Coding\nDuration                                 : 5mn 20s\nBit rate                                 : 2 571 Kbps\nMaximum bit rate                         : 9 560 Kbps\nWidth                                    : 1 280 pixels\nHeight                                   : 720 pixels\nDisplay aspect ratio                     : 16:9\nFrame rate mode                          : Constant\nFrame rate                               : 24.000 fps\nColor space                              : YUV\nChroma subsampling                       : 4:2:0\nBit depth                                : 8 bits\nScan type                                : Progressive\nBits/(Pixel*Frame)                       : 0.116\nStream size                              : 98.2 MiB (93%)\nTagged date                              : UTC 2013-04-08 06:49:26\n\nAudio\nID                                       : 2\nFormat                                   : AAC\nFormat/Info                              : Advanced Audio Codec\nFormat profile                           : LC\nCodec ID                                 : 40\nDuration                                 : 5mn 20s\nBit rate mode                            : Variable\nBit rate                                 : 192 Kbps\nMaximum bit rate                         : 203 Kbps\nChannel(s)                               : 2 channels\nChannel positions                        : Front: L R\nSampling rate                            : 44.1 KHz\nCompression mode                         : Lossy\nStream size                              : 7.34 MiB (7%)\nTitle                                    : IsoMedia File Produced by Google, 5-11-2011\nEncoded date                             : UTC 2013-04-08 06:49:11\nTagged date                              : UTC 2013-04-08 06:49:26\n\nShared By Sbyky\n[IMG]http://www.shotpix.com/images/93673952718153918459.gif[/IMG]\n[IMG]http://www.shotpix.com/images/30389343628541615007.gif[/IMG]","torrent":{"xt":"urn:btih:86bf543d6d9e9c97d07be899e9b7edd0e08d3b6d","amp;dn":"Drake+-+Started+From+The+Bottom+%5BExplicit%5D+720p+%5BSbyky%5D","amp;tr":["udp%3A%2F%2Ftracker.openbittorrent.com%3A80","udp%3A%2F%2Fopen.demonii.com%3A1337","udp%3A%2F%2Ftracker.coppersurfer.tk%3A6969","udp%3A%2F%2Fexodus.desync.com%3A6969"],"infoHash":"86bf543d6d9e9c97d07be899e9b7edd0e08d3b6d","infoHashBuffer":{"type":"Buffer","data":[134,191,84,61,109,158,156,151,208,123,232,153,233,183,237,208,224,141,59,109]},"announce":[],"urlList":[]}}